<mxfile host="Electron" agent="Mozilla/5.0 (Windows NT 10.0; Win64; x64) AppleWebKit/537.36 (KHTML, like Gecko) draw.io/24.7.17 Chrome/128.0.6613.36 Electron/32.0.1 Safari/537.36" version="24.7.17">
  <diagram id="C5RBs43oDa-KdzZeNtuy" name="Page-1">
    <mxGraphModel dx="1195" dy="697" grid="1" gridSize="10" guides="1" tooltips="1" connect="1" arrows="1" fold="1" page="1" pageScale="1" pageWidth="827" pageHeight="1169" math="0" shadow="0">
      <root>
        <mxCell id="WIyWlLk6GJQsqaUBKTNV-0" />
        <mxCell id="WIyWlLk6GJQsqaUBKTNV-1" parent="WIyWlLk6GJQsqaUBKTNV-0" />
        <mxCell id="Oz_AQFJUnqmZk5OM0nWv-2" value="" style="rounded=0;whiteSpace=wrap;html=1;fillColor=default;strokeColor=none;movable=0;resizable=0;rotatable=0;deletable=0;editable=0;locked=1;connectable=0;" vertex="1" parent="WIyWlLk6GJQsqaUBKTNV-1">
          <mxGeometry width="1350" height="570" as="geometry" />
        </mxCell>
        <mxCell id="Oz_AQFJUnqmZk5OM0nWv-17" style="edgeStyle=orthogonalEdgeStyle;rounded=0;orthogonalLoop=1;jettySize=auto;html=1;entryX=0.5;entryY=0;entryDx=0;entryDy=0;" edge="1" parent="WIyWlLk6GJQsqaUBKTNV-1" source="WIyWlLk6GJQsqaUBKTNV-3" target="Oz_AQFJUnqmZk5OM0nWv-14">
          <mxGeometry relative="1" as="geometry">
            <mxPoint x="130" y="299.9999999999999" as="targetPoint" />
          </mxGeometry>
        </mxCell>
        <mxCell id="Oz_AQFJUnqmZk5OM0nWv-18" style="rounded=0;orthogonalLoop=1;jettySize=auto;html=1;exitX=0.75;exitY=1;exitDx=0;exitDy=0;entryX=0;entryY=0.5;entryDx=0;entryDy=0;" edge="1" parent="WIyWlLk6GJQsqaUBKTNV-1" source="WIyWlLk6GJQsqaUBKTNV-3" target="WIyWlLk6GJQsqaUBKTNV-12">
          <mxGeometry relative="1" as="geometry" />
        </mxCell>
        <mxCell id="WIyWlLk6GJQsqaUBKTNV-3" value="Verifies that the user is qualified to buy the coupon" style="rounded=1;whiteSpace=wrap;html=1;fontSize=12;glass=0;strokeWidth=1;shadow=0;" parent="WIyWlLk6GJQsqaUBKTNV-1" vertex="1">
          <mxGeometry x="30" y="200" width="160" height="70" as="geometry" />
        </mxCell>
        <mxCell id="WIyWlLk6GJQsqaUBKTNV-12" value="&lt;font style=&quot;font-size: 12px;&quot;&gt;&amp;nbsp;Pub/Sub&lt;/font&gt;" style="rounded=1;whiteSpace=wrap;html=1;fontSize=12;glass=0;strokeWidth=1;shadow=0;" parent="WIyWlLk6GJQsqaUBKTNV-1" vertex="1">
          <mxGeometry x="451.25" y="450" width="120" height="40" as="geometry" />
        </mxCell>
        <mxCell id="Oz_AQFJUnqmZk5OM0nWv-20" style="rounded=0;orthogonalLoop=1;jettySize=auto;html=1;exitX=0.25;exitY=1;exitDx=0;exitDy=0;entryX=1;entryY=0.5;entryDx=0;entryDy=0;" edge="1" parent="WIyWlLk6GJQsqaUBKTNV-1" source="Oz_AQFJUnqmZk5OM0nWv-3" target="WIyWlLk6GJQsqaUBKTNV-12">
          <mxGeometry relative="1" as="geometry" />
        </mxCell>
        <mxCell id="Oz_AQFJUnqmZk5OM0nWv-28" style="rounded=0;orthogonalLoop=1;jettySize=auto;html=1;exitX=0.75;exitY=1;exitDx=0;exitDy=0;entryX=0;entryY=0.5;entryDx=0;entryDy=0;" edge="1" parent="WIyWlLk6GJQsqaUBKTNV-1" source="Oz_AQFJUnqmZk5OM0nWv-3" target="Oz_AQFJUnqmZk5OM0nWv-27">
          <mxGeometry relative="1" as="geometry" />
        </mxCell>
        <mxCell id="Oz_AQFJUnqmZk5OM0nWv-30" value="&lt;font style=&quot;font-size: 12px;&quot;&gt;Failed Payment&lt;/font&gt;" style="edgeLabel;html=1;align=center;verticalAlign=middle;resizable=0;points=[];" vertex="1" connectable="0" parent="Oz_AQFJUnqmZk5OM0nWv-28">
          <mxGeometry x="-0.3446" y="1" relative="1" as="geometry">
            <mxPoint as="offset" />
          </mxGeometry>
        </mxCell>
        <mxCell id="Oz_AQFJUnqmZk5OM0nWv-3" value="Check if the User&#39;s payment is successful" style="rounded=1;whiteSpace=wrap;html=1;fontSize=12;glass=0;strokeWidth=1;shadow=0;" vertex="1" parent="WIyWlLk6GJQsqaUBKTNV-1">
          <mxGeometry x="820" y="200" width="160" height="70" as="geometry" />
        </mxCell>
        <mxCell id="Oz_AQFJUnqmZk5OM0nWv-4" value="&lt;b&gt;&lt;font style=&quot;font-size: 15px;&quot;&gt;Server A&lt;/font&gt;&lt;/b&gt;" style="text;html=1;align=center;verticalAlign=middle;whiteSpace=wrap;rounded=0;" vertex="1" parent="WIyWlLk6GJQsqaUBKTNV-1">
          <mxGeometry x="75" y="170" width="70" height="30" as="geometry" />
        </mxCell>
        <mxCell id="Oz_AQFJUnqmZk5OM0nWv-5" value="&lt;b&gt;&lt;font style=&quot;font-size: 15px;&quot;&gt;Server B&lt;/font&gt;&lt;/b&gt;" style="text;html=1;align=center;verticalAlign=middle;whiteSpace=wrap;rounded=0;" vertex="1" parent="WIyWlLk6GJQsqaUBKTNV-1">
          <mxGeometry x="865" y="170" width="70" height="30" as="geometry" />
        </mxCell>
        <mxCell id="Oz_AQFJUnqmZk5OM0nWv-7" value="" style="strokeWidth=1;html=1;shape=mxgraph.flowchart.direct_data;whiteSpace=wrap;" vertex="1" parent="WIyWlLk6GJQsqaUBKTNV-1">
          <mxGeometry x="445" y="205" width="132.5" height="60" as="geometry" />
        </mxCell>
        <mxCell id="Oz_AQFJUnqmZk5OM0nWv-9" style="edgeStyle=orthogonalEdgeStyle;rounded=0;orthogonalLoop=1;jettySize=auto;html=1;exitX=1;exitY=0.5;exitDx=0;exitDy=0;entryX=0;entryY=0.5;entryDx=0;entryDy=0;entryPerimeter=0;" edge="1" parent="WIyWlLk6GJQsqaUBKTNV-1" source="WIyWlLk6GJQsqaUBKTNV-3" target="Oz_AQFJUnqmZk5OM0nWv-7">
          <mxGeometry relative="1" as="geometry" />
        </mxCell>
        <mxCell id="Oz_AQFJUnqmZk5OM0nWv-10" value="&lt;font style=&quot;font-size: 10px;&quot;&gt;Publish order submission + server id&amp;nbsp;&lt;/font&gt;&lt;span style=&quot;font-size: 10px;&quot;&gt;message&lt;/span&gt;" style="text;html=1;align=center;verticalAlign=middle;whiteSpace=wrap;rounded=0;" vertex="1" parent="WIyWlLk6GJQsqaUBKTNV-1">
          <mxGeometry x="200" y="205" width="220" height="30" as="geometry" />
        </mxCell>
        <mxCell id="Oz_AQFJUnqmZk5OM0nWv-11" style="edgeStyle=orthogonalEdgeStyle;rounded=0;orthogonalLoop=1;jettySize=auto;html=1;exitX=0;exitY=0.5;exitDx=0;exitDy=0;entryX=1;entryY=0.5;entryDx=0;entryDy=0;entryPerimeter=0;" edge="1" parent="WIyWlLk6GJQsqaUBKTNV-1" source="Oz_AQFJUnqmZk5OM0nWv-3" target="Oz_AQFJUnqmZk5OM0nWv-7">
          <mxGeometry relative="1" as="geometry" />
        </mxCell>
        <mxCell id="Oz_AQFJUnqmZk5OM0nWv-12" value="&lt;font style=&quot;font-size: 10px;&quot;&gt;Pull order submission and server id&amp;nbsp;&lt;/font&gt;&lt;span style=&quot;font-size: 10px;&quot;&gt;message&lt;/span&gt;" style="text;html=1;align=center;verticalAlign=middle;whiteSpace=wrap;rounded=0;" vertex="1" parent="WIyWlLk6GJQsqaUBKTNV-1">
          <mxGeometry x="580" y="205" width="230" height="30" as="geometry" />
        </mxCell>
        <mxCell id="Oz_AQFJUnqmZk5OM0nWv-13" value="&lt;b&gt;&lt;font style=&quot;font-size: 15px;&quot;&gt;Redis&lt;/font&gt;&lt;/b&gt;" style="text;html=1;align=center;verticalAlign=middle;whiteSpace=wrap;rounded=0;" vertex="1" parent="WIyWlLk6GJQsqaUBKTNV-1">
          <mxGeometry x="445" y="420" width="135" height="30" as="geometry" />
        </mxCell>
        <mxCell id="Oz_AQFJUnqmZk5OM0nWv-14" value="Frontend" style="ellipse;whiteSpace=wrap;html=1;" vertex="1" parent="WIyWlLk6GJQsqaUBKTNV-1">
          <mxGeometry x="65" y="440" width="90" height="60" as="geometry" />
        </mxCell>
        <mxCell id="Oz_AQFJUnqmZk5OM0nWv-16" value="&lt;font style=&quot;font-size: 12px;&quot;&gt;WebSocket connection &lt;br&gt;for payment result update&lt;/font&gt;" style="text;html=1;align=center;verticalAlign=middle;whiteSpace=wrap;rounded=0;" vertex="1" parent="WIyWlLk6GJQsqaUBKTNV-1">
          <mxGeometry x="110" y="350" width="160" height="30" as="geometry" />
        </mxCell>
        <mxCell id="Oz_AQFJUnqmZk5OM0nWv-19" value="Subscribe for new messages associated with it&#39;s server id" style="text;html=1;align=center;verticalAlign=middle;whiteSpace=wrap;rounded=0;rotation=35;" vertex="1" parent="WIyWlLk6GJQsqaUBKTNV-1">
          <mxGeometry x="244" y="340" width="170" height="30" as="geometry" />
        </mxCell>
        <mxCell id="Oz_AQFJUnqmZk5OM0nWv-21" value="Push payment status update along with the server id" style="text;html=1;align=center;verticalAlign=middle;whiteSpace=wrap;rounded=0;rotation=-37;" vertex="1" parent="WIyWlLk6GJQsqaUBKTNV-1">
          <mxGeometry x="600" y="340" width="170" height="30" as="geometry" />
        </mxCell>
        <mxCell id="Oz_AQFJUnqmZk5OM0nWv-22" value="&lt;b&gt;&lt;font style=&quot;font-size: 15px;&quot;&gt;Kafka&lt;/font&gt;&lt;/b&gt;" style="text;html=1;align=center;verticalAlign=middle;whiteSpace=wrap;rounded=0;" vertex="1" parent="WIyWlLk6GJQsqaUBKTNV-1">
          <mxGeometry x="476.25" y="170" width="70" height="30" as="geometry" />
        </mxCell>
        <mxCell id="Oz_AQFJUnqmZk5OM0nWv-23" value="" style="shape=cylinder3;whiteSpace=wrap;html=1;boundedLbl=1;backgroundOutline=1;size=15;" vertex="1" parent="WIyWlLk6GJQsqaUBKTNV-1">
          <mxGeometry x="1127.5" y="202.5" width="60" height="65" as="geometry" />
        </mxCell>
        <mxCell id="Oz_AQFJUnqmZk5OM0nWv-24" value="&lt;b&gt;&lt;font style=&quot;font-size: 15px;&quot;&gt;MySQL&lt;/font&gt;&lt;/b&gt;" style="text;html=1;align=center;verticalAlign=middle;whiteSpace=wrap;rounded=0;" vertex="1" parent="WIyWlLk6GJQsqaUBKTNV-1">
          <mxGeometry x="1122.5" y="170" width="70" height="30" as="geometry" />
        </mxCell>
        <mxCell id="Oz_AQFJUnqmZk5OM0nWv-25" style="rounded=0;orthogonalLoop=1;jettySize=auto;html=1;exitX=1;exitY=0.5;exitDx=0;exitDy=0;entryX=0;entryY=0.5;entryDx=0;entryDy=0;entryPerimeter=0;" edge="1" parent="WIyWlLk6GJQsqaUBKTNV-1" source="Oz_AQFJUnqmZk5OM0nWv-3" target="Oz_AQFJUnqmZk5OM0nWv-23">
          <mxGeometry relative="1" as="geometry" />
        </mxCell>
        <mxCell id="Oz_AQFJUnqmZk5OM0nWv-26" value="&lt;font style=&quot;font-size: 12px;&quot;&gt;Successful Payment&lt;/font&gt;" style="edgeLabel;html=1;align=center;verticalAlign=middle;resizable=0;points=[];" vertex="1" connectable="0" parent="Oz_AQFJUnqmZk5OM0nWv-25">
          <mxGeometry x="-0.184" y="-1" relative="1" as="geometry">
            <mxPoint as="offset" />
          </mxGeometry>
        </mxCell>
        <mxCell id="Oz_AQFJUnqmZk5OM0nWv-27" value="Rollback &lt;br&gt;Transcation" style="ellipse;whiteSpace=wrap;html=1;" vertex="1" parent="WIyWlLk6GJQsqaUBKTNV-1">
          <mxGeometry x="1097.5" y="430" width="120" height="80" as="geometry" />
        </mxCell>
        <mxCell id="Oz_AQFJUnqmZk5OM0nWv-29" value="&lt;b&gt;&lt;font style=&quot;font-size: 15px;&quot;&gt;Lua Script&lt;/font&gt;&lt;/b&gt;" style="text;html=1;align=center;verticalAlign=middle;whiteSpace=wrap;rounded=0;" vertex="1" parent="WIyWlLk6GJQsqaUBKTNV-1">
          <mxGeometry x="1110" y="400" width="95" height="30" as="geometry" />
        </mxCell>
      </root>
    </mxGraphModel>
  </diagram>
</mxfile>
